<?xml version="1.0" encoding="utf-8"?>
<!-- Generator: Adobe Illustrator 19.1.0, SVG Export Plug-In . SVG Version: 6.00 Build 0)  -->
<svg version="1.1" id="Layer_1" xmlns="http://www.w3.org/2000/svg" xmlns:xlink="http://www.w3.org/1999/xlink" x="0px" y="0px"
	 viewBox="0 0 52.8 52.8" style="enable-background:new 0 0 52.8 52.8;" xml:space="preserve">
<style type="text/css">
	.st0{fill:#FFFFFF;}
</style>
<g>
	<g>
		<path class="st0" d="M38.2,25.7c2,0,3.6-1.6,3.6-3.6s-1.6-3.6-3.6-3.6c-2,0-3.6,1.6-3.6,3.6S36.3,25.7,38.2,25.7z"/>
		<path class="st0" d="M32.5,26.9v0.6c0,3.6,0.3,7.6,3.3,8.6v6.2h4.7v-6.2c3.3-1,3.6-5,3.6-8.6v-0.6H32.5z"/>
		<path class="st0" d="M26.4,13.9c2,0,3.6-1.6,3.6-3.6s-1.6-3.6-3.6-3.6c-2,0-3.6,1.6-3.6,3.6S24.4,13.9,26.4,13.9z"/>
		<path class="st0" d="M20.7,15.7c0,3.7,0.3,7.7,3.3,8.7v6.1h4.7v-6.1c3.3-1,3.6-5,3.6-8.7v-0.6H20.7V15.7z"/>
		<path class="st0" d="M14.5,25.7c2,0,3.6-1.6,3.6-3.6s-1.6-3.6-3.6-3.6c-2,0-3.6,1.6-3.6,3.6S12.6,25.7,14.5,25.7z"/>
		<path class="st0" d="M8.6,27.5c0,3.5,0.4,7.7,3.6,8.7v6.1h4.7v-6.1c3.3-1.1,3.3-5.3,3.3-8.7v-0.6H8.6V27.5z"/>
	</g>
	<path class="st0" d="M26.4,52.8c-14.5,0-26.2-11.8-26.2-26.2S11.9,0.4,26.4,0.4s26.2,11.8,26.2,26.2S40.8,52.8,26.4,52.8z
		 M26.4,2.1c-13.5,0-24.5,11-24.5,24.5c0,13.5,11,24.5,24.5,24.5c13.5,0,24.5-11,24.5-24.5C50.9,13.1,39.9,2.1,26.4,2.1z"/>
</g>
</svg>
