<?xml version="1.0" encoding="utf-8"?>
<!-- Generator: Adobe Illustrator 19.1.0, SVG Export Plug-In . SVG Version: 6.00 Build 0)  -->
<svg version="1.1" id="Layer_1" xmlns="http://www.w3.org/2000/svg" xmlns:xlink="http://www.w3.org/1999/xlink" x="0px" y="0px"
	 viewBox="-394 271.5 52.8 52.8" style="enable-background:new -394 271.5 52.8 52.8;" xml:space="preserve">
<style type="text/css">
	.st0{fill:#F8BB9B;}
	.st1{enable-background:new    ;}
</style>
<g>
	<g>
		<path class="st0" d="M-350.4,284.3h-22c-0.3,0-0.6,0.3-0.6,0.6v17.2c2.9,0,5.3,2.4,5.3,5.3h5.9c0-2.9,2.4-5.3,5.3-5.3
			s5.3,2.4,5.3,5.3h0.6c0.3,0,0.6-0.3,0.6-0.6v-21.9C-349.8,284.5-350.1,284.3-350.4,284.3z"/>
		<path class="st0" d="M-374.1,302.2v-11.4c0-0.3-0.3-0.6-0.6-0.6h-5.3c-2.9,0-5.3,2.4-5.3,5.3v8.9h7.7c0.1,0,0.2,0,0.3,0.1
			C-376.7,303.3-375.5,302.5-374.1,302.2z M-379.5,294.9c-0.7,0-1.2,0.5-1.2,1.2v3c0,0.3-0.3,0.6-0.6,0.6c-0.3,0-0.6-0.3-0.6-0.6v-3
			c0-1.3,1.1-2.4,2.4-2.4h3c0.3,0,0.6,0.3,0.6,0.6c0,0.3-0.3,0.6-0.6,0.6C-376.5,294.9-379.5,294.9-379.5,294.9z"/>
		<path class="st0" d="M-385.4,305.6v3c0,0.3,0.3,0.6,0.6,0.6h6.8c-0.2-0.6-0.3-1.2-0.3-1.8s0.1-1.2,0.3-1.8H-385.4z"/>
		<path class="st0" d="M-356.4,303.2c-2.3,0-4.1,1.9-4.1,4.1c0,2.3,1.9,4.1,4.1,4.1c2.2,0,4.1-1.9,4.1-4.1
			C-352.2,305.1-354.1,303.2-356.4,303.2z"/>
		<path class="st0" d="M-372.9,303.2c-2.3,0-4.1,1.9-4.1,4.1c0,2.3,1.9,4.1,4.1,4.1c2.2,0,4.1-1.9,4.1-4.1
			C-368.8,305.1-370.7,303.2-372.9,303.2z"/>
	</g>
	<path class="st0" d="M-367.6,324.3c-14.6,0-26.4-11.9-26.4-26.4c0-14.6,11.8-26.4,26.4-26.4c14.5,0,26.4,11.8,26.4,26.4
		C-341.2,312.4-353.1,324.3-367.6,324.3z M-367.6,273.5c-13.5,0-24.4,10.9-24.4,24.4c0,13.4,10.9,24.4,24.4,24.4
		c13.4,0,24.4-10.9,24.4-24.4S-354.2,273.5-367.6,273.5z"/>
	<g class="st1">
		<path class="st0" d="M-370.8,290.8h0.7v2.5h0c0.1-0.2,0.3-0.4,0.5-0.5c0.2-0.1,0.5-0.2,0.7-0.2c0.5,0,1.4,0.3,1.4,1.7v2.4h-0.7
			v-2.3c0-0.6-0.2-1.2-0.9-1.2c-0.5,0-0.8,0.3-1,0.7c0,0.1,0,0.2,0,0.3v2.4h-0.7V290.8z"/>
		<path class="st0" d="M-362.6,294.6c0,1.5-1,2.1-2,2.1c-1.1,0-1.9-0.8-1.9-2.1c0-1.3,0.9-2.1,2-2.1
			C-363.4,292.5-362.6,293.4-362.6,294.6z M-365.8,294.6c0,0.9,0.5,1.5,1.2,1.5c0.7,0,1.2-0.7,1.2-1.6c0-0.7-0.3-1.5-1.2-1.5
			C-365.4,293.1-365.8,293.9-365.8,294.6z"/>
		<path class="st0" d="M-361.7,293.7c0-0.4,0-0.8,0-1.1h0.6l0,0.7h0c0.2-0.4,0.6-0.7,1.3-0.7c0.5,0,1,0.3,1.1,0.8h0
			c0.1-0.2,0.3-0.4,0.5-0.5c0.2-0.2,0.5-0.3,0.9-0.3c0.5,0,1.3,0.3,1.3,1.7v2.3h-0.7v-2.3c0-0.8-0.3-1.2-0.9-1.2
			c-0.4,0-0.7,0.3-0.9,0.7c0,0.1-0.1,0.2-0.1,0.4v2.5h-0.7v-2.4c0-0.6-0.3-1.1-0.8-1.1c-0.4,0-0.8,0.4-0.9,0.7
			c0,0.1-0.1,0.2-0.1,0.4v2.4h-0.7V293.7z"/>
		<path class="st0" d="M-354.4,294.8c0,1,0.6,1.4,1.4,1.4c0.5,0,0.8-0.1,1.1-0.2l0.1,0.5c-0.3,0.1-0.7,0.3-1.3,0.3c-1.2,0-2-0.8-2-2
			c0-1.2,0.7-2.2,1.9-2.2c1.3,0,1.7,1.1,1.7,1.9c0,0.1,0,0.3,0,0.3H-354.4z M-352.2,294.2c0-0.5-0.2-1.2-1-1.2
			c-0.7,0-1.1,0.7-1.1,1.2H-352.2z"/>
	</g>
</g>
</svg>
