<?xml version="1.0" encoding="utf-8"?>
<!-- Generator: Adobe Illustrator 19.1.0, SVG Export Plug-In . SVG Version: 6.00 Build 0)  -->
<svg version="1.1" id="Layer_1" xmlns="http://www.w3.org/2000/svg" xmlns:xlink="http://www.w3.org/1999/xlink" x="0px" y="0px"
	 viewBox="0 0 52.8 52.8" style="enable-background:new 0 0 52.8 52.8;" xml:space="preserve">
<style type="text/css">
	.st0{fill:#FFFFFF;}
	.st1{fill:#303030;}
	.st2{font-family:'MyriadPro-Regular';}
	.st3{font-size:8.2739px;}
</style>
<g>
	<g>
		<path class="st0" d="M43.6,12.8H21.6c-0.3,0-0.6,0.3-0.6,0.6v17.2c2.9,0,5.3,2.4,5.3,5.3h5.9c0-2.9,2.4-5.3,5.3-5.3
			s5.3,2.4,5.3,5.3h0.6c0.3,0,0.6-0.3,0.6-0.6V13.4C44.2,13,43.9,12.8,43.6,12.8z"/>
		<path class="st0" d="M19.9,30.7V19.3c0-0.3-0.3-0.6-0.6-0.6h-5.3c-2.9,0-5.3,2.4-5.3,5.3v8.9h7.7c0.1,0,0.2,0,0.3,0.1
			C17.3,31.8,18.5,31,19.9,30.7z M14.5,23.4c-0.7,0-1.2,0.5-1.2,1.2v3c0,0.3-0.3,0.6-0.6,0.6s-0.6-0.3-0.6-0.6v-3
			c0-1.3,1.1-2.4,2.4-2.4h3c0.3,0,0.6,0.3,0.6,0.6s-0.3,0.6-0.6,0.6H14.5z"/>
		<path class="st0" d="M8.6,34.1v3c0,0.3,0.3,0.6,0.6,0.6H16c-0.2-0.6-0.3-1.2-0.3-1.8c0-0.6,0.1-1.2,0.3-1.8H8.6z"/>
		<path class="st0" d="M37.6,31.7c-2.3,0-4.1,1.9-4.1,4.1c0,2.3,1.9,4.1,4.1,4.1s4.1-1.9,4.1-4.1C41.8,33.6,39.9,31.7,37.6,31.7z"/>
		<path class="st0" d="M21.1,31.7c-2.3,0-4.1,1.9-4.1,4.1c0,2.3,1.9,4.1,4.1,4.1s4.1-1.9,4.1-4.1C25.2,33.6,23.3,31.7,21.1,31.7z"/>
	</g>
	<path class="st0" d="M26.4,52.8C11.8,52.8,0,40.9,0,26.4C0,11.8,11.8,0,26.4,0c14.5,0,26.4,11.8,26.4,26.4
		C52.8,40.9,40.9,52.8,26.4,52.8z M26.4,2C12.9,2,2,12.9,2,26.4c0,13.4,10.9,24.4,24.4,24.4c13.4,0,24.4-10.9,24.4-24.4
		C50.8,12.9,39.8,2,26.4,2z"/>
	<text transform="matrix(1 0 0 1 22.5967 25.1503)" class="st1 st2 st3">home</text>
</g>
</svg>
