<?xml version="1.0" encoding="utf-8"?>
<!-- Generator: Adobe Illustrator 19.1.0, SVG Export Plug-In . SVG Version: 6.00 Build 0)  -->
<svg version="1.1" id="Layer_1" xmlns="http://www.w3.org/2000/svg" xmlns:xlink="http://www.w3.org/1999/xlink" x="0px" y="0px"
	 viewBox="-387 265.3 66 66" style="enable-background:new -387 265.3 66 66;" xml:space="preserve">
<style type="text/css">
	.st0{fill:#F8BB9B;}
</style>
<g>
	<path class="st0" d="M-383,310.3c-0.9,0-1.7-0.4-2.3-1c-0.8-1-1-2.3-0.4-3.4l3.8-6.9c-3.3-3.6-5.1-8.2-5.1-13.2
		c0-11.3,11-20.5,24.4-20.5s24.3,9.1,24.4,20.3c0,0.5,0.1,2.1-0.2,4.2l-0.3,2l-2-0.3c-1-0.2-2-0.2-3-0.2c-9,0-16.9,5.8-18.4,13.6
		l-0.3,1.7l-1.8-0.1c-0.7-0.1-1.4-0.1-2.2-0.2c-1.2-0.1-2.5-0.5-3.6-0.8l-12,4.6C-382.3,310.2-382.6,310.3-383,310.3z M-362.6,269.3
		c-11.2,0-20.4,7.4-20.4,16.5c0,4.4,1.8,8.4,5,11.2l1.2,1.1l-4,7.3l10.8-4.2l0.7,0.2c1,0.3,2.4,0.7,3.5,0.9c0.1,0,0.2,0,0.4,0
		c2.5-8.7,11.6-15,21.7-15c0.5,0,1,0,1.6,0.1c0-0.8,0-1.3,0-1.4v-0.2C-342.2,276.7-351.3,269.3-362.6,269.3z"/>
	<path class="st0" d="M-325,331.3c-0.4,0-0.8-0.1-1.1-0.2l-8.9-3.6c-0.1,0-0.2,0.1-0.3,0.1l-0.4,0.1c-0.2,0.1-0.4,0.1-0.6,0.2
		c-0.3,0.1-0.7,0.2-1,0.3l-0.4,0.1c-0.2,0-0.4,0.1-0.6,0.1c-0.4,0.1-0.8,0.1-1.2,0.2h-0.3c-0.2,0-0.3,0.1-0.5,0.1
		c-0.7,0.1-1.3,0.1-2,0.1l0,0c-9.5,0-17.7-6.2-19.7-14.7c-0.3-1.2-0.4-2.5-0.4-3.7c0-9.8,9.5-18.1,20.7-18.1
		c11.2,0,20.7,8.3,20.7,18.1c0,0.5,0,1.1-0.1,1.6c0,0.2,0,0.4-0.1,0.5l-0.1,0.3c0,0.2-0.1,0.5-0.1,0.7c0,0.2-0.1,0.5-0.2,0.7
		l-0.1,0.3c0,0.2-0.1,0.4-0.1,0.5c-0.1,0.3-0.2,0.5-0.3,0.7l-0.1,0.2c-0.1,0.2-0.1,0.4-0.2,0.5c-0.1,0.2-0.2,0.5-0.4,0.7l-0.1,0.2
		c-0.1,0.2-0.2,0.4-0.3,0.6c-0.1,0.2-0.3,0.5-0.4,0.7c-0.2,0.2-0.3,0.5-0.5,0.7c-0.1,0.2-0.3,0.4-0.5,0.6c-0.2,0.2-0.4,0.5-0.6,0.7
		c-0.1,0.1-0.2,0.2-0.3,0.3l3,5.8c0.6,1.1,0.4,2.5-0.4,3.4C-323.3,330.9-324.2,331.3-325,331.3z M-333.8,323.7l6.7,2.7l-3.2-6.1
		l1.2-1c0.3-0.2,0.5-0.5,0.7-0.7c0.1-0.1,0.3-0.3,0.4-0.4c0.2-0.2,0.3-0.4,0.4-0.5c0.1-0.2,0.2-0.3,0.3-0.4c0.1-0.2,0.2-0.3,0.4-0.5
		c0.1-0.2,0.2-0.3,0.3-0.5c0.1-0.1,0.1-0.3,0.2-0.4l0.1-0.1c0.1-0.2,0.2-0.4,0.3-0.6c0-0.1,0.1-0.2,0.1-0.3l0.1-0.2
		c0.1-0.2,0.1-0.3,0.2-0.5c0-0.1,0.1-0.2,0.1-0.3l0.1-0.4c0-0.1,0.1-0.3,0.1-0.4s0.1-0.3,0.1-0.5l0.1-0.4c0-0.1,0-0.2,0-0.3
		c0-0.4,0.1-0.8,0.1-1.2c0-8-7.6-14.4-16.7-14.4c-9.1,0-16.7,6.5-16.7,14.1c0,0.9,0.1,1.9,0.3,2.8c1.5,6.6,8.3,11.6,15.8,11.6
		c0.5,0,1.1,0,1.6-0.1c0.1,0,0.2,0,0.2,0l0.4-0.1c0.3,0,0.6-0.1,0.9-0.1c0.1,0,0.2-0.1,0.3-0.1l0.4-0.1c0.3-0.1,0.5-0.1,0.8-0.2
		c0.1,0,0.3-0.1,0.4-0.1l0.5-0.2c0.3-0.1,0.5-0.2,0.8-0.3l0.8-0.3L-333.8,323.7z"/>
</g>
</svg>
