<?xml version="1.0" encoding="utf-8"?>
<!-- Generator: Adobe Illustrator 19.1.0, SVG Export Plug-In . SVG Version: 6.00 Build 0)  -->
<svg version="1.1" id="Layer_1" xmlns="http://www.w3.org/2000/svg" xmlns:xlink="http://www.w3.org/1999/xlink" x="0px" y="0px"
	 viewBox="0 0 52.8 52.8" style="enable-background:new 0 0 52.8 52.8;" xml:space="preserve">
<style type="text/css">
	.st0{fill:#FFFFFF;}
</style>
<g>
	<path class="st0" d="M31.3,21.4c0.7,0,1.3,0.1,1.9,0.2c0.2-1.2,0.1-2,0.1-2.2c0-5.9-5.7-10.7-12.8-10.7c-7,0-12.8,4.8-12.8,10.7
		c0,2.9,1.2,5.5,3.3,7.4l-2.6,4.8c-0.1,0.2-0.1,0.5,0.1,0.7c0.1,0.1,0.3,0.2,0.4,0.2c0.1,0,0.1,0,0.2,0l7.2-2.8
		c0.7,0.2,1.5,0.5,2.2,0.5c0.4,0,0.8,0.1,1.2,0.1C20.6,25.3,25.5,21.4,31.3,21.4z"/>
	<path class="st0" d="M31.3,22.6c-5.8,0-10.6,4.3-10.6,9.4c0,0.6,0.1,1.3,0.2,1.9c1,4.3,5.2,7.7,10.1,7.7c0,0,0,0,0,0
		c0.3,0,0.7,0,1-0.1c0.1,0,0.2,0,0.4-0.1c0.2,0,0.4-0.1,0.7-0.1c0.1,0,0.3-0.1,0.4-0.1c0.2,0,0.4-0.1,0.6-0.2c0.1,0,0.3-0.1,0.4-0.1
		c0.2-0.1,0.4-0.2,0.7-0.2l0.2,0.1c0,0,0,0,0,0l5.3,2.1c0.1,0,0.1,0,0.2,0c0.2,0,0.3-0.1,0.4-0.2c0.2-0.2,0.2-0.4,0.1-0.7l-2.1-4.1
		c0.2-0.2,0.3-0.3,0.5-0.5c0.1-0.1,0.2-0.2,0.3-0.3c0.1-0.1,0.2-0.2,0.3-0.4c0.1-0.1,0.2-0.2,0.2-0.3c0.1-0.1,0.2-0.2,0.2-0.4
		c0.1-0.1,0.1-0.2,0.2-0.3c0.1-0.1,0.1-0.2,0.2-0.3c0.1-0.1,0.1-0.3,0.2-0.4c0-0.1,0.1-0.2,0.1-0.3c0.1-0.1,0.1-0.3,0.2-0.4
		c0-0.1,0.1-0.2,0.1-0.3c0-0.1,0.1-0.3,0.1-0.4c0-0.1,0-0.3,0.1-0.4c0-0.1,0-0.2,0.1-0.4c0-0.3,0-0.5,0-0.8
		C41.9,26.9,37,22.6,31.3,22.6z"/>
</g>
<path class="st0" d="M26.4,52.8C11.8,52.8,0,41,0,26.4C0,11.8,11.8,0,26.4,0s26.4,11.8,26.4,26.4C52.8,41,41,52.8,26.4,52.8z
	 M26.4,1.9c-13.5,0-24.5,11-24.5,24.5s11,24.5,24.5,24.5c13.5,0,24.5-11,24.5-24.5S39.9,1.9,26.4,1.9z"/>
</svg>
