<?xml version="1.0" encoding="utf-8"?>
<!-- Generator: Adobe Illustrator 19.1.0, SVG Export Plug-In . SVG Version: 6.00 Build 0)  -->
<svg version="1.1" id="Layer_1" xmlns="http://www.w3.org/2000/svg" xmlns:xlink="http://www.w3.org/1999/xlink" x="0px" y="0px"
	 viewBox="0 0 66 66" style="enable-background:new 0 0 66 66;" xml:space="preserve">
<style type="text/css">
	.st0{fill:#FFFFFF;}
</style>
<g>
	<path class="st0" d="M4,45c-0.9,0-1.7-0.4-2.3-1c-0.8-1-1-2.3-0.4-3.4l3.8-6.9C1.8,30.1,0,25.5,0,20.5C0,9.2,11,0,24.4,0
		c13.4,0,24.3,9.1,24.4,20.3c0,0.5,0.1,2.1-0.2,4.2l-0.3,2l-2-0.3C45.3,26,44.3,26,43.3,26c-9,0-16.9,5.8-18.4,13.6l-0.3,1.7
		l-1.8-0.1c-0.7-0.1-1.4-0.1-2.2-0.2c-1.2-0.1-2.5-0.5-3.6-0.8l-12,4.6C4.7,44.9,4.4,45,4,45z M24.4,4C13.2,4,4,11.4,4,20.5
		c0,4.4,1.8,8.4,5,11.2l1.2,1.1l-4,7.3L17,35.9l0.7,0.2c1,0.3,2.4,0.7,3.5,0.9c0.1,0,0.2,0,0.4,0C24.1,28.3,33.2,22,43.3,22
		c0.5,0,1,0,1.6,0.1c0-0.8,0-1.3,0-1.4l0-0.2C44.8,11.4,35.7,4,24.4,4z"/>
	<path class="st0" d="M62,66c-0.4,0-0.8-0.1-1.1-0.2L52,62.2c-0.1,0-0.2,0.1-0.3,0.1l-0.4,0.1c-0.2,0.1-0.4,0.1-0.6,0.2
		c-0.3,0.1-0.7,0.2-1,0.3L49.3,63c-0.2,0-0.4,0.1-0.6,0.1c-0.4,0.1-0.8,0.1-1.2,0.2l-0.3,0c-0.2,0-0.3,0.1-0.5,0.1
		c-0.7,0.1-1.3,0.1-2,0.1c0,0,0,0,0,0c-9.5,0-17.7-6.2-19.7-14.7c-0.3-1.2-0.4-2.5-0.4-3.7c0-9.8,9.5-18.1,20.7-18.1
		C56.5,27,66,35.3,66,45.1c0,0.5,0,1.1-0.1,1.6c0,0.2,0,0.4-0.1,0.5l-0.1,0.3c0,0.2-0.1,0.5-0.1,0.7c0,0.2-0.1,0.5-0.2,0.7l-0.1,0.3
		c0,0.2-0.1,0.4-0.1,0.5c-0.1,0.3-0.2,0.5-0.3,0.7l-0.1,0.2c-0.1,0.2-0.1,0.4-0.2,0.5c-0.1,0.2-0.2,0.5-0.4,0.7l-0.1,0.2
		c-0.1,0.2-0.2,0.4-0.3,0.6c-0.1,0.2-0.3,0.5-0.4,0.7c-0.2,0.2-0.3,0.5-0.5,0.7c-0.1,0.2-0.3,0.4-0.5,0.6c-0.2,0.2-0.4,0.5-0.6,0.7
		c-0.1,0.1-0.2,0.2-0.3,0.3l3,5.8c0.6,1.1,0.4,2.5-0.4,3.4C63.7,65.6,62.8,66,62,66z M53.2,58.4l6.7,2.7L56.7,55l1.2-1
		c0.3-0.2,0.5-0.5,0.7-0.7c0.1-0.1,0.3-0.3,0.4-0.4c0.2-0.2,0.3-0.4,0.4-0.5c0.1-0.2,0.2-0.3,0.3-0.4c0.1-0.2,0.2-0.3,0.4-0.5
		c0.1-0.2,0.2-0.3,0.3-0.5c0.1-0.1,0.1-0.3,0.2-0.4l0.1-0.1c0.1-0.2,0.2-0.4,0.3-0.6c0-0.1,0.1-0.2,0.1-0.3l0.1-0.2
		c0.1-0.2,0.1-0.3,0.2-0.5c0-0.1,0.1-0.2,0.1-0.3l0.1-0.4c0-0.1,0.1-0.3,0.1-0.4s0.1-0.3,0.1-0.5l0.1-0.4c0-0.1,0-0.2,0-0.3
		c0-0.4,0.1-0.8,0.1-1.2C62,37.4,54.4,31,45.3,31s-16.7,6.5-16.7,14.1c0,0.9,0.1,1.9,0.3,2.8c1.5,6.6,8.3,11.6,15.8,11.6
		c0.5,0,1.1,0,1.6-0.1c0.1,0,0.2,0,0.2,0l0.4-0.1c0.3,0,0.6-0.1,0.9-0.1c0.1,0,0.2-0.1,0.3-0.1l0.4-0.1c0.3-0.1,0.5-0.1,0.8-0.2
		c0.1,0,0.3-0.1,0.4-0.1l0.5-0.2c0.3-0.1,0.5-0.2,0.8-0.3l0.8-0.3L53.2,58.4z"/>
</g>
</svg>
