<?xml version="1.0" encoding="utf-8"?>
<!-- Generator: Adobe Illustrator 19.1.0, SVG Export Plug-In . SVG Version: 6.00 Build 0)  -->
<svg version="1.1" id="Layer_1" xmlns="http://www.w3.org/2000/svg" xmlns:xlink="http://www.w3.org/1999/xlink" x="0px" y="0px"
	 viewBox="0 0 63 62.7" style="enable-background:new 0 0 63 62.7;" xml:space="preserve">
<style type="text/css">
	.st0{fill:#FFFFFF;}
</style>
<g>
	<path class="st0" d="M60.5,52.5h-58c-1.3,0-2.3-0.9-2.5-2.2c-0.2-1.3,0.7-2.4,1.9-2.7C8,46,8,43.8,8,43V29
		c0-9.7,5.4-18.2,13.9-21.9C23.2,2.9,27.1,0,31.5,0c4.5,0,8.3,2.9,9.6,7.1C49.6,10.8,55,19.3,55,29v14c0,0.8,0,3,6.1,4.6l0,0
		c1.2,0.3,2,1.5,1.9,2.7C62.8,51.5,61.8,52.5,60.5,52.5z M5.7,49.5h51.5c-2.5-1-5.3-2.9-5.3-6.5V29c0-8.7-5-16.3-12.7-19.4l-0.7-0.3
		l-0.2-0.8C37.7,5.3,34.8,3,31.5,3c-3.3,0-6.2,2.3-6.9,5.5l-0.2,0.8l-0.7,0.3C16,12.7,11,20.3,11,29v14C11,46.6,8.2,48.5,5.7,49.5z"
		/>
	<path class="st0" d="M31.5,62.7c-5.6,0-8.5-2.9-8.5-8.5c0-1.4,1.1-2.5,2.5-2.5h12c1.4,0,2.5,1.1,2.5,2.5
		C40,59.8,37.1,62.7,31.5,62.7z M26,54.7c0.1,3.5,1.8,5,5.5,5s5.4-1.5,5.5-5H26z"/>
</g>
</svg>
