<?xml version="1.0" encoding="utf-8"?>
<!-- Generator: Adobe Illustrator 19.1.0, SVG Export Plug-In . SVG Version: 6.00 Build 0)  -->
<svg version="1.1" id="Layer_1" xmlns="http://www.w3.org/2000/svg" xmlns:xlink="http://www.w3.org/1999/xlink" x="0px" y="0px"
	 viewBox="0 0 52.8 52.8" style="enable-background:new 0 0 52.8 52.8;" xml:space="preserve">
<style type="text/css">
	.st0{fill:#FFFFFF;}
</style>
<path class="st0" d="M26.4,52.8C11.8,52.8,0,41,0,26.4C0,11.8,11.8,0,26.4,0s26.4,11.8,26.4,26.4C52.8,41,41,52.8,26.4,52.8z
	 M26.4,1.9c-13.5,0-24.5,11-24.5,24.5s11,24.5,24.5,24.5c13.5,0,24.5-11,24.5-24.5S39.9,1.9,26.4,1.9z"/>
<g>
	<path class="st0" d="M45,36.2c-3.1-0.8-4.6-2-4.6-3.8v-8.9c0-6-3.4-11.1-8.7-13.2c-0.6-2.5-2.7-4.3-5.3-4.3c-2.5,0-4.8,1.8-5.3,4.3
		c-5.3,2.1-8.7,7.3-8.7,13.2v8.9c0,1.8-1.5,3.1-4.6,3.8c-0.3,0.1-0.5,0.4-0.5,0.7c0,0.3,0.3,0.6,0.6,0.6h36.9c0.3,0,0.6-0.2,0.6-0.6
		C45.5,36.6,45.3,36.3,45,36.2z"/>
	<path class="st0" d="M30.2,38.9h-7.6c-0.4,0-0.6,0.3-0.6,0.6c0,3,1.5,4.5,4.5,4.5s4.5-1.5,4.5-4.5C30.9,39.2,30.6,38.9,30.2,38.9z"
		/>
</g>
</svg>
