<?xml version="1.0" encoding="utf-8"?>
<!-- Generator: Adobe Illustrator 19.1.0, SVG Export Plug-In . SVG Version: 6.00 Build 0)  -->
<svg version="1.1" id="Layer_1" xmlns="http://www.w3.org/2000/svg" xmlns:xlink="http://www.w3.org/1999/xlink" x="0px" y="0px"
	 viewBox="-389 266.6 63 62.7" style="enable-background:new -389 266.6 63 62.7;" xml:space="preserve">
<style type="text/css">
	.st0{fill:#F8BB9B;}
</style>
<g>
	<path class="st0" d="M-328.5,319.1h-58c-1.3,0-2.3-0.9-2.5-2.2c-0.2-1.3,0.7-2.4,1.9-2.7c6.1-1.6,6.1-3.8,6.1-4.6v-14
		c0-9.7,5.4-18.2,13.9-21.9c1.3-4.2,5.2-7.1,9.6-7.1c4.5,0,8.3,2.9,9.6,7.1c8.5,3.7,13.9,12.2,13.9,21.9v14c0,0.8,0,3,6.1,4.6l0,0
		c1.2,0.3,2,1.5,1.9,2.7C-326.2,318.1-327.2,319.1-328.5,319.1z M-383.3,316.1h51.5c-2.5-1-5.3-2.9-5.3-6.5v-14
		c0-8.7-5-16.3-12.7-19.4l-0.7-0.3l-0.2-0.8c-0.6-3.2-3.5-5.5-6.8-5.5s-6.2,2.3-6.9,5.5l-0.2,0.8l-0.7,0.3
		c-7.7,3.1-12.7,10.7-12.7,19.4v14C-378,313.2-380.8,315.1-383.3,316.1z"/>
	<path class="st0" d="M-357.5,329.3c-5.6,0-8.5-2.9-8.5-8.5c0-1.4,1.1-2.5,2.5-2.5h12c1.4,0,2.5,1.1,2.5,2.5
		C-349,326.4-351.9,329.3-357.5,329.3z M-363,321.3c0.1,3.5,1.8,5,5.5,5s5.4-1.5,5.5-5H-363z"/>
</g>
</svg>
