<?xml version="1.0" encoding="utf-8"?>
<!-- Generator: Adobe Illustrator 19.1.0, SVG Export Plug-In . SVG Version: 6.00 Build 0)  -->
<svg version="1.1" id="Layer_1" xmlns="http://www.w3.org/2000/svg" xmlns:xlink="http://www.w3.org/1999/xlink" x="0px" y="0px"
	 viewBox="-394 271.5 52.8 52.8" style="enable-background:new -394 271.5 52.8 52.8;" xml:space="preserve">
<style type="text/css">
	.st0{fill:#F8BB9B;}
</style>
<g>
	<g>
		<path class="st0" d="M-367.8,280.3c-6.9,0-12.4,5.6-12.4,12.4c0,6.7,11.5,22.2,12,22.9c0.1,0.2,0.3,0.2,0.5,0.2
			c0.2,0,0.4-0.1,0.5-0.2c0.5-0.7,12-16.2,12-22.9C-355.3,285.9-360.9,280.3-367.8,280.3z M-367.8,298.1c-2.9,0-5.3-2.4-5.3-5.3
			c0-2.9,2.4-5.3,5.3-5.3c2.9,0,5.3,2.4,5.3,5.3C-362.5,295.7-364.8,298.1-367.8,298.1z"/>
		<path class="st0" d="M-367.8,316.3c-0.3,0-0.6-0.2-0.8-0.4c-0.5-0.7-12-16.3-12-23.1c0-7.1,5.8-12.9,12.9-12.9
			c7.1,0,12.9,5.8,12.9,12.9c0,6.8-11.6,22.5-12,23.1C-367.1,316.1-367.4,316.3-367.8,316.3z M-367.8,280.7c-6.6,0-12,5.4-12,12
			c0,6.5,11.4,22,11.9,22.6c0.1,0.1,0.2,0.1,0.3,0c0.5-0.7,11.9-16.1,11.9-22.6C-355.8,286.1-361.1,280.7-367.8,280.7z
			 M-367.8,298.5c-3.2,0-5.8-2.6-5.8-5.8c0-3.2,2.6-5.8,5.8-5.8c3.2,0,5.8,2.6,5.8,5.8C-362,295.9-364.6,298.5-367.8,298.5z
			 M-367.8,287.9c-2.7,0-4.9,2.2-4.9,4.9c0,2.7,2.2,4.9,4.9,4.9c2.7,0,4.9-2.2,4.9-4.9C-362.9,290.1-365.1,287.9-367.8,287.9z"/>
	</g>
	<path class="st0" d="M-367.8,324.3c-14.4,0-26.2-11.7-26.2-26.2s11.8-26.2,26.2-26.2c14.4,0,26.2,11.8,26.2,26.2
		S-353.3,324.3-367.8,324.3z M-367.8,273.6c-13.5,0-24.5,11-24.5,24.5s11,24.5,24.5,24.5s24.5-11,24.5-24.5
		C-343.2,284.6-354.2,273.6-367.8,273.6z"/>
</g>
</svg>
