<?xml version="1.0" encoding="utf-8"?>
<!-- Generator: Adobe Illustrator 19.1.0, SVG Export Plug-In . SVG Version: 6.00 Build 0)  -->
<svg version="1.1" id="Layer_1" xmlns="http://www.w3.org/2000/svg" xmlns:xlink="http://www.w3.org/1999/xlink" x="0px" y="0px"
	 viewBox="0 0 46 60" style="enable-background:new 0 0 46 60;" xml:space="preserve">
<style type="text/css">
	.st0{fill:#DDDDDD;}
</style>
<path class="st0" d="M23,0C10.5,0,0,10.5,0,23c0,8.4,3.9,17.5,11.2,26.1c5.5,6.5,10.9,10.5,11.2,10.7c0.2,0.1,0.4,0.2,0.6,0.2
	s0.4-0.1,0.6-0.2c0.2-0.2,5.7-4.1,11.2-10.7C42.1,40.5,46,31.4,46,23C46,10.5,35.5,0,23,0z M23,37c-7.7,0-14-6.3-14-14S15.3,9,23,9
	s14,6.3,14,14S30.7,37,23,37z"/>
</svg>
