<?xml version="1.0" encoding="utf-8"?>
<!-- Generator: Adobe Illustrator 19.1.0, SVG Export Plug-In . SVG Version: 6.00 Build 0)  -->
<svg version="1.1" id="Layer_1" xmlns="http://www.w3.org/2000/svg" xmlns:xlink="http://www.w3.org/1999/xlink" x="0px" y="0px"
	 viewBox="0 0 52.8 52.8" style="enable-background:new 0 0 52.8 52.8;" xml:space="preserve">
<style type="text/css">
	.st0{fill:#FFFFFF;}
</style>
<g>
	<g>
		<path class="st0" d="M26.2,8.8c-6.9,0-12.4,5.6-12.4,12.4c0,6.7,11.5,22.2,12,22.9c0.1,0.2,0.3,0.2,0.5,0.2s0.4-0.1,0.5-0.2
			c0.5-0.7,12-16.2,12-22.9C38.7,14.4,33.1,8.8,26.2,8.8z M26.2,26.6c-2.9,0-5.3-2.4-5.3-5.3s2.4-5.3,5.3-5.3s5.3,2.4,5.3,5.3
			S29.2,26.6,26.2,26.6z"/>
		<path class="st0" d="M26.2,44.8c-0.3,0-0.6-0.2-0.8-0.4c-0.5-0.7-12-16.3-12-23.1c0-7.1,5.8-12.9,12.9-12.9s12.9,5.8,12.9,12.9
			c0,6.8-11.6,22.5-12,23.1C26.9,44.6,26.6,44.8,26.2,44.8z M26.2,9.2c-6.6,0-12,5.4-12,12c0,6.5,11.4,22,11.9,22.6
			c0.1,0.1,0.2,0.1,0.3,0c0.5-0.7,11.9-16.1,11.9-22.6C38.2,14.6,32.9,9.2,26.2,9.2z M26.2,27c-3.2,0-5.8-2.6-5.8-5.8
			c0-3.2,2.6-5.8,5.8-5.8s5.8,2.6,5.8,5.8C32,24.4,29.4,27,26.2,27z M26.2,16.4c-2.7,0-4.9,2.2-4.9,4.9s2.2,4.9,4.9,4.9
			s4.9-2.2,4.9-4.9S28.9,16.4,26.2,16.4z"/>
	</g>
	<path class="st0" d="M26.2,52.8C11.8,52.8,0,41.1,0,26.6S11.8,0.4,26.2,0.4s26.2,11.8,26.2,26.2S40.7,52.8,26.2,52.8z M26.2,2.1
		c-13.5,0-24.5,11-24.5,24.5c0,13.5,11,24.5,24.5,24.5c13.5,0,24.5-11,24.5-24.5C50.8,13.1,39.8,2.1,26.2,2.1z"/>
</g>
</svg>
