<?xml version="1.0" encoding="utf-8"?>
<!-- Generator: Adobe Illustrator 19.1.0, SVG Export Plug-In . SVG Version: 6.00 Build 0)  -->
<svg version="1.1" id="Layer_1" xmlns="http://www.w3.org/2000/svg" xmlns:xlink="http://www.w3.org/1999/xlink" x="0px" y="0px"
	 viewBox="-394 271.5 52.8 52.8" style="enable-background:new -394 271.5 52.8 52.8;" xml:space="preserve">
<style type="text/css">
	.st0{fill:#CCCCCC;}
</style>
<path class="st0" d="M-367.6,272.7c-14,0-25.4,11.4-25.4,25.4c0,6.5,2.5,12.7,7,17.5l0,0l0,0l0,0l0,0l0,0l0,0l0,0l0,0l0,0l0,0l0,0
	l0,0l0,0l0,0l0,0l0,0l0,0c4.9,4.9,11.8,7.9,18.4,7.9s13.5-2.9,18.4-7.9l0,0c4.5-4.7,7-11,7-17.5
	C-342.2,284.1-353.6,272.7-367.6,272.7z M-350,313.9c-1.2-0.6-3.6-1.5-7.8-3c-1.6-0.6-3.2-1.1-4.7-1.7V305c1-0.6,3-2.2,3.2-6.3
	c0.4-0.2,0.7-0.5,0.9-0.9c0.3-0.5,0.4-1.2,0.4-1.9c0-1.2-0.4-2.2-1.1-2.7v-0.1c0.5-1.6,1.5-4.5,0.8-7c-0.7-2.8-4.6-3.8-7.8-3.8
	c-2.9,0-6.3,0.8-7.5,3.1c-1.5-0.1-2.3,0.5-2.7,1c-1.3,1.7-0.4,5,0.1,6.7v0.1c-0.7,0.5-1.2,1.4-1.2,2.7c0,1.3,0.5,2.4,1.3,2.8
	c0.2,4,2.2,5.7,3.2,6.3v4.2c-1.4,0.5-2.9,1-4.3,1.5c-3.2,1-6.2,2-8.2,3.2c-3.9-4.4-6.1-9.9-6.1-15.8c0-13.1,10.6-23.7,23.7-23.7
	c13.1,0,23.7,10.6,23.7,23.7C-343.9,304-346.1,309.6-350,313.9z"/>
</svg>
